<svg xmlns="http://www.w3.org/2000/svg" width="14" height="16.094" viewBox="0 0 14 16.094">
  <defs>
    <style>
      .cls-1 {
        fill: #232323;
        fill-rule: evenodd;
      }
    </style>
  </defs>
  <path class="cls-1" d="M1354.98,62.047v0a0.013,0.013,0,0,1,.01,0H1355v0c3.47-.025,2.98-5.032,2.98-5.032a5.287,5.287,0,0,0-.04-0.58c-0.37-3.44-5.6-3.406-5.92.04-0.01.171-.02,0.351-0.02,0.54,0,0-.5,5.007,2.98,5.032m4.04,1.853a11.049,11.049,0,0,0-8.04,0c-1.56.611-2.98,1.575-2.98,3.061v3.02h14v-3.02c0-1.486-1.42-2.45-2.98-3.061" transform="translate(-1348 -53.875)"/>
</svg>
