<svg xmlns="http://www.w3.org/2000/svg" width="15.91" height="15.906" viewBox="0 0 15.91 15.906">
  <defs>
    <style>
      .cls-1 {
        fill: #fff;
        fill-rule: evenodd;
      }
    </style>
  </defs>
  <path class="cls-1" d="M1444.73,59.424a1.008,1.008,0,0,0-.78-0.372h-13.93a0.994,0.994,0,0,0-.78.372,1.013,1.013,0,0,0-.2.838l1.99,8.952a1.009,1.009,0,0,0,.98.779h9.95a0.989,0.989,0,0,0,.97-0.779l1.99-8.952a0.974,0.974,0,0,0-.19-0.838m-2.02,1.617-0.22.995h-11.01l-0.22-.995h11.45Zm-10.79,2.984-0.22-.994h10.57l-0.22.994h-10.13Zm9.9,0.995-0.22.995h-9.24l-0.22-.995h9.68ZM1432.8,68l-0.22-.994h8.8l-0.22.994h-8.36Zm0.2-9.946a1.008,1.008,0,0,0,.71-0.292l1.99-1.989a1,1,0,0,0-1.41-1.407l-1.99,1.989a0.995,0.995,0,0,0,.7,1.7m7.26-.292a1,1,0,0,0,1.41,0,0.991,0.991,0,0,0,0-1.406l-1.99-1.989a1,1,0,1,0-1.41,1.407Z" transform="translate(-1429.03 -54.094)"/>
</svg>
