<svg xmlns="http://www.w3.org/2000/svg" viewBox="0 0 48 34"><defs><style>.cls-1{fill:none;stroke:gray;stroke-linecap:round;stroke-linejoin:round;stroke-width:2px;}</style></defs><title>Asset 7</title><g id="Layer_2" data-name="Layer 2"><g id="icons"><path class="cls-1" d="M14,28.37A4,4,0,1,1,10.63,25,4,4,0,0,1,14,28.37Z"/><path class="cls-1" d="M42,28.37A4,4,0,1,1,38.63,25,4,4,0,0,1,42,28.37Z"/><polyline class="cls-1" points="6 29 1 29 1 18 5 14 10 5 19 5 19 1 47 1 47 29 42 29"/><line class="cls-1" x1="14" y1="29" x2="34" y2="29"/><polyline class="cls-1" points="15 9 12 9 9 15"/><line class="cls-1" x1="19" y1="5" x2="19" y2="25"/><line class="cls-1" x1="1" y1="25" x2="47" y2="25"/></g></g></svg>