<svg xmlns="http://www.w3.org/2000/svg" viewBox="0 0 48 48"><defs><style>.cls-1{fill:none;stroke:gray;stroke-linecap:round;stroke-linejoin:round;stroke-width:2px;}</style></defs><title>Asset 3</title><g id="Layer_2" data-name="Layer 2"><g id="icons"><polyline class="cls-1" points="14.44 27 1 27 1 21 14.41 21"/><polyline class="cls-1" points="27 33.53 27 47 21 47 21 33.56"/><polyline class="cls-1" points="33.53 21 47 21 47 27 33.59 27"/><polyline class="cls-1" points="21 14.44 21 1 27 1 27 14.44"/><circle class="cls-1" cx="24" cy="24" r="10"/><path class="cls-1" d="M27,3.21A21,21,0,0,1,44.79,21"/><path class="cls-1" d="M3.21,21A21,21,0,0,1,21,3.21"/><path class="cls-1" d="M21,44.79A21,21,0,0,1,3.21,27"/><path class="cls-1" d="M44.79,27A21,21,0,0,1,27,44.79"/></g></g></svg>