<svg xmlns="http://www.w3.org/2000/svg" viewBox="0 0 60 59.02"><defs><style>.cls-1{fill:none;stroke:gray;stroke-linecap:round;stroke-miterlimit:10;stroke-width:2px;}</style></defs><title>Asset 4</title><g id="Layer_2" data-name="Layer 2"><g id="icons"><path class="cls-1" d="M52.48,46.46c-1.9-3.59-8.9-7.69-8.9-7.69-1.58-.9-3.49-1-4.4.6a36.35,36.35,0,0,1-2.85,3.12c-2.64,1.79-5.09,1.72-7.56-.75L23,36l-5.74-5.74c-2.47-2.47-2.54-4.92-.75-7.56a36.21,36.21,0,0,1,3.12-2.85c1.61-.9,1.51-2.81.61-4.4,0,0-4.1-7-7.69-8.9a3.93,3.93,0,0,0-4.62.7L5.41,9.77c-8,8-4.08,17.13,4,25.17l7.35,7.35,7.35,7.35c8,8,17.13,12,25.17,4l2.54-2.54A3.93,3.93,0,0,0,52.48,46.46Z"/><path class="cls-1" d="M29,42a20,20,0,0,0,11,5"/><path class="cls-1" d="M18,31s-5.31-4.37-6-11"/><path class="cls-1" d="M27.37,1A31.67,31.67,0,0,1,59,32.63"/><path class="cls-1" d="M27.37,8A24.63,24.63,0,0,1,52,32.63"/><path class="cls-1" d="M27.37,15.06A17.59,17.59,0,0,1,44.94,32.63"/></g></g></svg>