<svg xmlns="http://www.w3.org/2000/svg" viewBox="0 0 60 43"><defs><style>.cls-1{fill:none;stroke:gray;stroke-linecap:round;stroke-miterlimit:10;stroke-width:2px;}</style></defs><title>Asset 6</title><g id="Layer_2" data-name="Layer 2"><g id="icons"><path class="cls-1" d="M1,1,28.14,28.27a2.73,2.73,0,0,0,3.72,0L59,1"/><polygon class="cls-1" points="1 1 1 1.1 1 41.87 1 42 1.13 42 58.54 42 58.87 42 59 42 59 41.87 59 1.1 59 1 1 1"/><path class="cls-1" d="M1,40.71V2.29a.64.64,0,0,1,1-.51L22,22,2,41.22A.64.64,0,0,1,1,40.71Z"/><path class="cls-1" d="M59,40.71V2.29a.64.64,0,0,0-1-.51L38,22,58,41.22A.64.64,0,0,0,59,40.71Z"/></g></g></svg>