<svg xmlns="http://www.w3.org/2000/svg" width="162.935" height="35.656" viewBox="0 0 162.935 35.656">
  <defs>
    <style>
      .cls-1 {
        fill: #fff;
        fill-rule: evenodd;
      }
    </style>
  </defs>
  <path class="cls-1" d="M925.8,77.241V65.019h8.988v-5.46H925.8V53.217h12.012v-5.46H918.619V77.241H925.8Zm43.386,0L958.981,47.673h-8.736L940,77.241h7.644l1.638-4.956h10.584l1.638,4.956h7.686ZM954.571,56.325l3.486,10.5h-6.973Zm30.345-7.456a3.949,3.949,0,0,1,1.029,2.456h7.812q-0.127-4.661-3.066-6.824a12.7,12.7,0,0,0-7.708-2.163,12.065,12.065,0,0,0-7.833,2.478,8.051,8.051,0,0,0-3.066,6.594,7.756,7.756,0,0,0,.8,3.633,5.985,5.985,0,0,0,2.079,2.352A15.256,15.256,0,0,0,977.8,58.8a28.9,28.9,0,0,0,3.129.987q1.575,0.4,2.856.861a5.575,5.575,0,0,1,2.08,1.26,2.788,2.788,0,0,1,.8,2.058,2.714,2.714,0,0,1-.882,2.079,3.444,3.444,0,0,1-2.436.819q-3.318,0-3.611-3.528h-7.645a8.151,8.151,0,0,0,3.045,6.8,12.611,12.611,0,0,0,8.022,2.394,11.735,11.735,0,0,0,8.023-2.667,8.233,8.233,0,0,0,3.044-6.405,7.868,7.868,0,0,0-.8-3.675,6.175,6.175,0,0,0-2.078-2.373,13.747,13.747,0,0,0-2.836-1.407,32.238,32.238,0,0,0-3.129-.966q-1.575-.4-2.856-0.84a5.2,5.2,0,0,1-2.078-1.26,2.961,2.961,0,0,1-.8-2.163,2.521,2.521,0,0,1,.86-2.057,3.339,3.339,0,0,1,2.205-.715A2.991,2.991,0,0,1,984.916,48.868Zm20.974-.651V72.241h7.19V48.217h8.06V42.758H997.872v5.459h8.018ZM1038.8,70.9a7.313,7.313,0,0,1-5.67-2.31,8.79,8.79,0,0,1-2.12-6.174,8.79,8.79,0,0,1,2.12-6.174,8.114,8.114,0,0,1,11.34,0,8.79,8.79,0,0,1,2.12,6.174,8.79,8.79,0,0,1-2.12,6.174A7.313,7.313,0,0,1,1038.8,70.9Zm0.02,6.636a14.7,14.7,0,0,0,10.71-4.284,14.547,14.547,0,0,0,4.37-10.836,14.5,14.5,0,0,0-4.35-10.815,15.636,15.636,0,0,0-21.46,0,14.421,14.421,0,0,0-4.39,10.815,14.488,14.488,0,0,0,4.39,10.836A14.781,14.781,0,0,0,1038.82,77.535Zm27.72-11.759,6.64,11.466h8.4l-7.23-12.012a8.487,8.487,0,0,0,5.09-3.444,9.226,9.226,0,0,0,1.55-5,8.376,8.376,0,0,0-2.86-6.384q-2.85-2.646-7.98-2.646h-11.63V77.241h7.18V65.776h0.84Zm3.61-12.558a3.4,3.4,0,0,1,2.57,1.008,3.594,3.594,0,0,1,.96,2.583,3.284,3.284,0,0,1-3.53,3.507h-4.45v-7.1h4.45ZM972,76h49v2H972V76Z" transform="translate(-918.625 -42.344)"/>
</svg>
